<mxfile host="app.diagrams.net" agent="Mozilla/5.0 (Windows NT 10.0; Win64; x64) AppleWebKit/537.36 (KHTML, like Gecko) Chrome/141.0.0.0 Safari/537.36" version="28.2.5">
  <diagram name="Página-1" id="XyPUs_z-6Kj5NvZzh40w">
    <mxGraphModel dx="1638" dy="676" grid="1" gridSize="10" guides="1" tooltips="1" connect="1" arrows="1" fold="1" page="1" pageScale="1" pageWidth="1169" pageHeight="827" math="0" shadow="0">
      <root>
        <mxCell id="0" />
        <mxCell id="1" parent="0" />
        <mxCell id="O1aEDZT3MTqiDwMN4jLn-1" style="edgeStyle=orthogonalEdgeStyle;rounded=0;orthogonalLoop=1;jettySize=auto;html=1;sketch=1;curveFitting=1;jiggle=2;strokeWidth=3;" edge="1" parent="1" source="O1aEDZT3MTqiDwMN4jLn-2" target="O1aEDZT3MTqiDwMN4jLn-4">
          <mxGeometry relative="1" as="geometry" />
        </mxCell>
        <mxCell id="O1aEDZT3MTqiDwMN4jLn-2" value="Inicio" style="ellipse;whiteSpace=wrap;html=1;fillColor=#dae8fc;strokeColor=#6c8ebf;strokeWidth=3;shadow=1;sketch=1;curveFitting=1;jiggle=2;" vertex="1" parent="1">
          <mxGeometry x="69" y="20" width="120" height="80" as="geometry" />
        </mxCell>
        <mxCell id="O1aEDZT3MTqiDwMN4jLn-3" style="edgeStyle=orthogonalEdgeStyle;rounded=0;orthogonalLoop=1;jettySize=auto;html=1;entryX=0.5;entryY=0;entryDx=0;entryDy=0;sketch=1;curveFitting=1;jiggle=2;strokeWidth=3;" edge="1" parent="1" source="O1aEDZT3MTqiDwMN4jLn-4" target="O1aEDZT3MTqiDwMN4jLn-6">
          <mxGeometry relative="1" as="geometry" />
        </mxCell>
        <mxCell id="O1aEDZT3MTqiDwMN4jLn-4" value="Ler KmF, KmI, GasolinaGasta" style="shape=parallelogram;perimeter=parallelogramPerimeter;whiteSpace=wrap;html=1;fixedSize=1;fillColor=#e1d5e7;strokeColor=#9673a6;strokeWidth=3;shadow=1;sketch=1;curveFitting=1;jiggle=2;" vertex="1" parent="1">
          <mxGeometry x="69" y="130" width="120" height="60" as="geometry" />
        </mxCell>
        <mxCell id="O1aEDZT3MTqiDwMN4jLn-5" value="" style="edgeStyle=orthogonalEdgeStyle;rounded=0;orthogonalLoop=1;jettySize=auto;html=1;sketch=1;curveFitting=1;jiggle=2;strokeWidth=3;" edge="1" parent="1" source="O1aEDZT3MTqiDwMN4jLn-6" target="O1aEDZT3MTqiDwMN4jLn-8">
          <mxGeometry relative="1" as="geometry" />
        </mxCell>
        <mxCell id="O1aEDZT3MTqiDwMN4jLn-6" value="&lt;font face=&quot;Times New Roman&quot;&gt;X&lt;/font&gt; = (100*GasolinaGasta)/KmF-KmI" style="rounded=0;whiteSpace=wrap;html=1;fillColor=#d5e8d4;strokeColor=#82b366;strokeWidth=3;shadow=1;sketch=1;curveFitting=1;jiggle=2;" vertex="1" parent="1">
          <mxGeometry x="20" y="230" width="218" height="70" as="geometry" />
        </mxCell>
        <mxCell id="O1aEDZT3MTqiDwMN4jLn-7" value="" style="edgeStyle=orthogonalEdgeStyle;rounded=0;orthogonalLoop=1;jettySize=auto;html=1;sketch=1;curveFitting=1;jiggle=2;strokeWidth=3;" edge="1" parent="1" source="O1aEDZT3MTqiDwMN4jLn-8" target="O1aEDZT3MTqiDwMN4jLn-9">
          <mxGeometry relative="1" as="geometry" />
        </mxCell>
        <mxCell id="O1aEDZT3MTqiDwMN4jLn-8" value="Escrever &lt;font face=&quot;Times New Roman&quot;&gt;X&lt;/font&gt;" style="shape=parallelogram;perimeter=parallelogramPerimeter;whiteSpace=wrap;html=1;fixedSize=1;fillColor=#e1d5e7;strokeColor=#9673a6;strokeWidth=3;shadow=1;sketch=1;curveFitting=1;jiggle=2;" vertex="1" parent="1">
          <mxGeometry x="69" y="330" width="120" height="60" as="geometry" />
        </mxCell>
        <mxCell id="O1aEDZT3MTqiDwMN4jLn-9" value="Fim" style="ellipse;whiteSpace=wrap;html=1;fillColor=#f8cecc;strokeColor=#b85450;strokeWidth=3;shadow=1;sketch=1;curveFitting=1;jiggle=2;" vertex="1" parent="1">
          <mxGeometry x="69" y="430" width="120" height="80" as="geometry" />
        </mxCell>
        <mxCell id="O1aEDZT3MTqiDwMN4jLn-10" value="2º Fluxograma" style="text;html=1;align=center;verticalAlign=middle;resizable=0;points=[];autosize=1;strokeColor=none;fillColor=none;" vertex="1" parent="1">
          <mxGeometry x="200" y="58" width="100" height="30" as="geometry" />
        </mxCell>
      </root>
    </mxGraphModel>
  </diagram>
</mxfile>
